<svg xmlns="http://www.w3.org/2000/svg" viewBox="0 0 30 30"><defs><style>.cls-1{fill:#8a9aa7;}</style></defs><g id="Layer_5" data-name="Layer 5"><path class="cls-1" d="M26.81,3.78a.94.94,0,0,0-1.3,0l-3.13,3V1.38a.86.86,0,0,0-.57-.81.94.94,0,0,0-1,.19L11.09,10H6.47A3,3,0,0,0,3.41,13V17A3,3,0,0,0,6.47,20h2L3.19,25a.85.85,0,0,0,0,1.24.94.94,0,0,0,.65.26,1,1,0,0,0,.65-.26L11.1,20l9.71,9.26a.94.94,0,0,0,.65.26.84.84,0,0,0,.35-.07.86.86,0,0,0,.57-.81V9.24L26.81,5A.85.85,0,0,0,26.81,3.78ZM6.47,18.21A1.2,1.2,0,0,1,5.25,17V13a1.2,1.2,0,0,1,1.22-1.17h5a.92.92,0,0,0,.65-.26l8.42-8v5l-10.19,9.7ZM20.54,26.5,12.4,18.74,20.54,11Z"/></g></svg>