<svg xmlns="http://www.w3.org/2000/svg" viewBox="0 0 30 30"><defs><style>.cls-1{fill:#8a9aa7;}</style></defs><title>bbb_mobile_icons</title><g id="Layer_4" data-name="Layer 4"><path class="cls-1" d="M24.94,20.34H23.78a4.47,4.47,0,0,1-4.37-3.55,54.11,54.11,0,0,0-8.82,0,4.47,4.47,0,0,1-4.37,3.55H5.06A4.48,4.48,0,0,1,.59,15.87v-.74a4.48,4.48,0,0,1,3.58-4.38,54.47,54.47,0,0,1,21.66,0,4.48,4.48,0,0,1,3.58,4.38v.74A4.48,4.48,0,0,1,24.94,20.34ZM15,14.61c1.82,0,3.64.09,5.41.26a1,1,0,0,1,.9,1,2.48,2.48,0,0,0,2.47,2.47h1.16a2.48,2.48,0,0,0,2.47-2.47v-.74a2.49,2.49,0,0,0-2-2.43,52.7,52.7,0,0,0-20.86,0,2.49,2.49,0,0,0-2,2.43v.74a2.48,2.48,0,0,0,2.47,2.47H6.22a2.48,2.48,0,0,0,2.47-2.47,1,1,0,0,1,.9-1C11.36,14.7,13.18,14.61,15,14.61Z"/></g></svg>