<?xml version="1.0" encoding="UTF-8"?><svg id="Camada_1" xmlns="http://www.w3.org/2000/svg" xmlns:xlink="http://www.w3.org/1999/xlink" viewBox="0 0 690.15 487.47"><defs><style></style><symbol id="bbb-cc-cut" viewBox="0 0 690.15 487.47"><g><g><path d="M97.89,384.88c-26.46-31.27-41.03-77.41-41.03-134.69,0-110.56,60.37-179.06,136.33-179.06,83.43,0,130.23,51.55,137.69,139.04h-85.46c-2.71-35.95-20.35-56.3-48.16-56.3-31.88,0-50.87,33.91-50.87,99.7,0,33.51,4.27,65.37,22.18,81.66l188.1-132.11c14.46-82.6,67.31-132,132.39-132,17.07,0,32.58,2.16,46.52,6.35l82.2-57.73C572.17,7.07,466.9,1.34,347.77,1.34,206.91,1.34,78.86,9.43,53.24,27.62c-7.41,2.7-17.52,10.78-22.92,16.85C5.39,78.17,1.35,127.37,0,239.25v25.61c0,92.68,7.26,137.21,30.26,167.52l67.64-47.5Z"/><path d="M664.46,53.02l-78.26,54.97c22.8,23.82,36.15,58.52,39.87,102.18h-84.78c-1.94-25.74-11.54-43.47-27.28-51.48l-66.79,46.91c-3.18,13.43-4.95,29.44-4.95,47.98,0,48.16,8.14,92.92,53.58,92.92,29.17,0,42.73-25.1,46.12-58.33h86.14c-8.14,88.85-58.33,142.43-130.23,142.43-84.31,0-137.8-60.43-144.44-159.14l-23.79,16.71h3.25c-8.14,88.85-59.01,142.43-130.9,142.43-21.67,0-41.3-4-58.62-11.61l-59.59,41.85c51.23,10.9,153.68,15.27,263.98,16.32h14.83c135.47,0,249.37-8.76,274.31-26.96,7.41-3.37,16.85-11.46,21.57-17.52,26.29-33.7,31.68-82.22,31.68-193.43,0-102.18-4.55-152.58-25.69-186.23Z"/></g><path d="M22.64,481.84l-9.75-13.89c-4.2-5.98-2.76-14.24,3.22-18.44L652.72,2.41c5.98-4.2,14.24-2.76,18.44,3.22l9.75,13.89c4.2,5.98,2.76,14.24-3.22,18.44L41.08,485.06c-5.98,4.2-14.24,2.76-18.44-3.22Z"/></g></symbol></defs><use width="690.15" height="487.47" xlink:href="#bbb-cc-cut"/></svg>